# xmcd
#
# Track frame offsets:
#       150
#       22215
#       35521
#       48227
#       67136
#       81467
#       99092
#       117225
#       133915
#       152140
#
# Disc length: 2169 seconds
#
# Revision: 0
# Processed by: cddbd v1.4PL0 Copyright (c) Steve Scherf et al.
# Submitted via: WhereIsIt 3.26
#
DISCID=8a08770a
DTITLE=Stone River Band - Water's Edge
DYEAR=1900
DGENRE=
TTITLE0=You're Gonna Miss Me When I'm Gone
TTITLE1=My Next Broken Heart
TTITLE2=I Try To Think About Elvis
TTITLE3=Neon Moon
TTITLE4=There Goes My Heart
TTITLE5=You Say You Will
TTITLE6=She Used To Be Mine
TTITLE7=Shut Up And Kiss Me
TTITLE8=Even The Man In The Moon Is Crying
TTITLE9=She Lays It On The Line
EXTD=
EXTT0=
EXTT1=
EXTT2=
EXTT3=
EXTT4=
EXTT5=
EXTT6=
EXTT7=
EXTT8=
EXTT9=
PLAYORDER=
